# Blender v2.79 (sub 0) OBJ File: 'bigcar.blend'
# www.blender.org
mtllib wheel.mtl
o Cylinder.001
v 0.006452 0.733309 -1.067330
v 0.006452 0.733309 -1.489933
v 0.073686 0.726687 -1.067330
v 0.073686 0.726687 -1.489933
v 0.138335 0.707076 -1.067330
v 0.138335 0.707076 -1.489933
v 0.197917 0.675229 -1.067330
v 0.197917 0.675229 -1.489933
v 0.250141 0.632370 -1.067330
v 0.250141 0.632370 -1.489933
v 0.293000 0.580146 -1.067330
v 0.293000 0.580146 -1.489933
v 0.324847 0.520565 -1.067330
v 0.324847 0.520565 -1.489933
v 0.344458 0.455915 -1.067330
v 0.344458 0.455915 -1.489933
v 0.351080 0.388681 -1.067330
v 0.351080 0.388681 -1.489933
v 0.344458 0.321448 -1.067330
v 0.344458 0.321448 -1.489933
v 0.324847 0.256798 -1.067330
v 0.324847 0.256798 -1.489933
v 0.293000 0.197216 -1.067330
v 0.293000 0.197216 -1.489933
v 0.250141 0.144992 -1.067330
v 0.250141 0.144992 -1.489933
v 0.197917 0.102133 -1.067330
v 0.197917 0.102133 -1.489933
v 0.138335 0.070286 -1.067330
v 0.138335 0.070286 -1.489933
v 0.073685 0.050675 -1.067330
v 0.073685 0.050675 -1.489933
v 0.006452 0.044053 -1.067330
v 0.006452 0.044053 -1.489933
v -0.060782 0.050675 -1.067330
v -0.060782 0.050675 -1.489933
v -0.125432 0.070286 -1.067330
v -0.125432 0.070286 -1.489933
v -0.185013 0.102134 -1.067330
v -0.185013 0.102134 -1.489933
v -0.237237 0.144993 -1.067330
v -0.237237 0.144993 -1.489933
v -0.280096 0.197216 -1.067330
v -0.280096 0.197216 -1.489933
v -0.311943 0.256798 -1.067330
v -0.311943 0.256798 -1.489933
v -0.331554 0.321448 -1.067330
v -0.331554 0.321448 -1.489933
v -0.338176 0.388682 -1.067330
v -0.338176 0.388682 -1.489933
v -0.331554 0.455915 -1.067330
v -0.331554 0.455915 -1.489933
v -0.311943 0.520565 -1.067330
v -0.311943 0.520565 -1.489933
v -0.280096 0.580147 -1.067330
v -0.280096 0.580147 -1.489933
v -0.237237 0.632370 -1.067330
v -0.237237 0.632370 -1.489933
v -0.185013 0.675229 -1.067330
v -0.185013 0.675229 -1.489933
v -0.125431 0.707076 -1.067330
v -0.125431 0.707076 -1.489933
v -0.060781 0.726687 -1.067330
v -0.060781 0.726687 -1.489933
v 0.055073 0.633114 -1.517842
v 0.006452 0.637903 -1.517842
v 0.101825 0.618932 -1.517842
v 0.144912 0.595901 -1.517842
v 0.182678 0.564908 -1.517842
v 0.213672 0.527141 -1.517842
v 0.236703 0.484054 -1.517842
v 0.250885 0.437302 -1.517842
v 0.255674 0.388681 -1.517842
v 0.250885 0.340061 -1.517842
v 0.236703 0.293308 -1.517842
v 0.213672 0.250221 -1.517842
v 0.182678 0.212455 -1.517842
v 0.144912 0.181461 -1.517842
v 0.101825 0.158430 -1.517842
v 0.055073 0.144248 -1.517842
v 0.006452 0.139460 -1.517842
v -0.042169 0.144248 -1.517842
v -0.088921 0.158431 -1.517842
v -0.132008 0.181461 -1.517842
v -0.169775 0.212455 -1.517842
v -0.200768 0.250221 -1.517842
v -0.223799 0.293308 -1.517842
v -0.237981 0.340061 -1.517842
v -0.242770 0.388681 -1.517842
v -0.237981 0.437302 -1.517842
v -0.223799 0.484055 -1.517842
v -0.200768 0.527142 -1.517842
v -0.169774 0.564908 -1.517842
v -0.132008 0.595902 -1.517842
v -0.088921 0.618932 -1.517842
v -0.042168 0.633114 -1.517842
v 0.055073 0.633114 -1.401114
v 0.006452 0.637903 -1.401114
v 0.101825 0.618932 -1.401114
v 0.144912 0.595901 -1.401114
v 0.182678 0.564908 -1.401114
v 0.213672 0.527141 -1.401114
v 0.236703 0.484054 -1.401114
v 0.250885 0.437302 -1.401114
v 0.255674 0.388681 -1.401114
v 0.250885 0.340061 -1.401114
v 0.236703 0.293308 -1.401114
v 0.213672 0.250221 -1.401114
v 0.182678 0.212455 -1.401114
v 0.144912 0.181461 -1.401114
v 0.101825 0.158430 -1.401114
v 0.055073 0.144248 -1.401114
v 0.006452 0.139460 -1.401114
v -0.042169 0.144248 -1.401114
v -0.088921 0.158431 -1.401114
v -0.132008 0.181461 -1.401114
v -0.169775 0.212455 -1.401114
v -0.200768 0.250221 -1.401114
v -0.223799 0.293308 -1.401114
v -0.237981 0.340061 -1.401114
v -0.242770 0.388682 -1.401114
v -0.237981 0.437302 -1.401114
v -0.223799 0.484055 -1.401114
v -0.200768 0.527142 -1.401114
v -0.169774 0.564908 -1.401114
v -0.132008 0.595902 -1.401114
v -0.088921 0.618932 -1.401114
v -0.042168 0.633114 -1.401114
vt 0.610580 0.409864
vt 0.610580 0.389660
vt 0.446382 0.389660
vt 0.446382 0.409864
vt 0.774777 0.594793
vt 0.774777 0.571036
vt 0.610580 0.571036
vt 0.610580 0.594793
vt 0.774777 0.544638
vt 0.610580 0.544638
vt 0.774777 0.516615
vt 0.610580 0.516615
vt 0.774777 0.488042
vt 0.610580 0.488042
vt 0.774777 0.460019
vt 0.610580 0.460019
vt 0.774777 0.433621
vt 0.610580 0.433621
vt 0.774777 0.409864
vt 0.610580 0.409864
vt 0.774777 0.389660
vt 0.610580 0.389660
vt 0.446382 0.614997
vt 0.446382 0.638754
vt 0.610580 0.638754
vt 0.610580 0.614997
vt 0.446382 0.665152
vt 0.610580 0.665152
vt 0.446382 0.693175
vt 0.610580 0.693175
vt 0.446382 0.721748
vt 0.610580 0.721748
vt 0.446382 0.749771
vt 0.610580 0.749771
vt 0.446382 0.776169
vt 0.610580 0.776169
vt 0.446382 0.799926
vt 0.610580 0.799926
vt 0.446382 0.820130
vt 0.610580 0.820130
vt 0.610580 0.594793
vt 0.610580 0.618550
vt 0.774777 0.618550
vt 0.774777 0.594793
vt 0.610580 0.644948
vt 0.774777 0.644948
vt 0.610580 0.672971
vt 0.774777 0.672972
vt 0.610580 0.701544
vt 0.774777 0.701544
vt 0.610580 0.729568
vt 0.774777 0.729568
vt 0.610580 0.755965
vt 0.774777 0.755965
vt 0.610580 0.779722
vt 0.774777 0.779722
vt 0.610580 0.614997
vt 0.610580 0.594793
vt 0.446382 0.594793
vt 0.446382 0.614997
vt 0.610580 0.571036
vt 0.446382 0.571036
vt 0.610580 0.544638
vt 0.446382 0.544638
vt 0.610580 0.516615
vt 0.446382 0.516615
vt 0.610580 0.488042
vt 0.446382 0.488042
vt 0.610580 0.460019
vt 0.446382 0.460019
vt 0.395724 0.340514
vt 0.413198 0.304928
vt 0.397415 0.293449
vt 0.373899 0.324640
vt 0.610580 0.433621
vt 0.446382 0.433621
vt 0.041348 0.179154
vt 0.046469 0.207177
vt 0.056514 0.233574
vt 0.071098 0.257332
vt 0.089658 0.277535
vt 0.111484 0.293410
vt 0.135735 0.304344
vt 0.161480 0.309918
vt 0.187729 0.309918
vt 0.213474 0.304344
vt 0.237725 0.293410
vt 0.259550 0.277536
vt 0.278111 0.257332
vt 0.292695 0.233575
vt 0.302740 0.207177
vt 0.307861 0.179154
vt 0.307861 0.150581
vt 0.302740 0.122557
vt 0.292695 0.096160
vt 0.278111 0.072403
vt 0.259550 0.052199
vt 0.237725 0.036325
vt 0.213474 0.025391
vt 0.187729 0.019816
vt 0.161480 0.019816
vt 0.135735 0.025391
vt 0.111484 0.036325
vt 0.089659 0.052199
vt 0.071098 0.072403
vt 0.056514 0.096160
vt 0.046469 0.122557
vt 0.041348 0.150581
vt 0.774777 0.487124
vt 0.820130 0.487124
vt 0.820130 0.466858
vt 0.774777 0.466858
vt 0.586980 0.254281
vt 0.551507 0.242568
vt 0.544243 0.261658
vt 0.576935 0.280679
vt 0.471969 0.066921
vt 0.468336 0.107076
vt 0.486953 0.111108
vt 0.497714 0.072495
vt 0.330709 0.254281
vt 0.366182 0.242568
vt 0.362479 0.222303
vt 0.325588 0.226258
vt 0.521965 0.340514
vt 0.504491 0.304929
vt 0.486953 0.312836
vt 0.497714 0.351448
vt 0.562351 0.119507
vt 0.533697 0.145105
vt 0.544243 0.162285
vt 0.576935 0.143264
vt 0.355338 0.119507
vt 0.383992 0.145105
vt 0.397415 0.130494
vt 0.373899 0.099303
vt 0.419975 0.351448
vt 0.430736 0.312836
vt 0.592101 0.226258
vt 0.555210 0.222303
vt 0.445720 0.066921
vt 0.449353 0.107076
vt 0.340754 0.280679
vt 0.373446 0.261658
vt 0.543790 0.324640
vt 0.520274 0.293449
vt 0.543790 0.099303
vt 0.520274 0.130494
vt 0.330709 0.169662
vt 0.366182 0.181375
vt 0.373446 0.162285
vt 0.340754 0.143264
vt 0.445720 0.357023
vt 0.449353 0.316867
vt 0.592101 0.197685
vt 0.555210 0.201640
vt 0.419975 0.072495
vt 0.430736 0.111108
vt 0.355338 0.304436
vt 0.383992 0.278838
vt 0.562351 0.304436
vt 0.533697 0.278838
vt 0.521965 0.083429
vt 0.504491 0.119015
vt 0.325588 0.197685
vt 0.362479 0.201640
vt 0.471969 0.357023
vt 0.468336 0.316867
vt 0.586980 0.169662
vt 0.551507 0.181375
vt 0.395724 0.083429
vt 0.413198 0.119015
vt 0.294212 0.677706
vt 0.314959 0.656959
vt 0.331260 0.632563
vt 0.342488 0.605455
vt 0.348212 0.576678
vt 0.348213 0.547337
vt 0.342488 0.518560
vt 0.331260 0.491453
vt 0.314959 0.467056
vt 0.294212 0.446309
vt 0.269816 0.430008
vt 0.242708 0.418780
vt 0.213931 0.413056
vt 0.184590 0.413055
vt 0.155813 0.418779
vt 0.128706 0.430008
vt 0.104310 0.446309
vt 0.083562 0.467056
vt 0.067261 0.491452
vt 0.056033 0.518560
vt 0.050309 0.547337
vt 0.050309 0.576678
vt 0.056033 0.605456
vt 0.067262 0.632564
vt 0.083563 0.656960
vt 0.104310 0.677707
vt 0.128706 0.694008
vt 0.155814 0.705236
vt 0.184591 0.710960
vt 0.213932 0.710960
vt 0.242708 0.705235
vt 0.269816 0.694007
vt 0.775173 0.179870
vt 0.729820 0.179870
vt 0.729820 0.194481
vt 0.775173 0.194481
vt 0.774777 0.506214
vt 0.820130 0.506214
vt 0.684467 0.197050
vt 0.729820 0.197050
vt 0.684467 0.179870
vt 0.774777 0.523394
vt 0.820130 0.523394
vt 0.684467 0.216140
vt 0.729820 0.216140
vt 0.639114 0.194481
vt 0.684467 0.194481
vt 0.684467 0.179870
vt 0.639114 0.179870
vt 0.684467 0.236406
vt 0.729820 0.236406
vt 0.639114 0.211661
vt 0.684467 0.211661
vt 0.684467 0.257068
vt 0.729820 0.257068
vt 0.639114 0.230751
vt 0.684467 0.230751
vt 0.684467 0.277334
vt 0.729820 0.277334
vt 0.639114 0.342825
vt 0.684467 0.342825
vt 0.684467 0.328214
vt 0.639114 0.328214
vt 0.639114 0.251016
vt 0.684467 0.251016
vt 0.684467 0.296423
vt 0.729820 0.296423
vt 0.775173 0.311034
vt 0.729820 0.311034
vt 0.729820 0.328214
vt 0.775173 0.328214
vt 0.639114 0.271679
vt 0.684467 0.271679
vt 0.684467 0.313604
vt 0.729820 0.313604
vt 0.775173 0.291944
vt 0.729820 0.291944
vt 0.639114 0.291944
vt 0.684467 0.291944
vt 0.684467 0.328214
vt 0.729820 0.328214
vt 0.775173 0.271679
vt 0.729820 0.271679
vt 0.639114 0.311034
vt 0.684467 0.311034
vt 0.774777 0.406841
vt 0.820130 0.406841
vt 0.820130 0.389660
vt 0.774777 0.389660
vt 0.775173 0.251016
vt 0.729820 0.251016
vt 0.774777 0.425930
vt 0.820130 0.425930
vt 0.775173 0.230751
vt 0.729820 0.230751
vt 0.774777 0.446196
vt 0.820130 0.446196
vt 0.775173 0.211661
vt 0.729820 0.211661
vn 0.0980 0.9952 0.0000
vn 0.2903 0.9569 0.0000
vn 0.4714 0.8819 0.0000
vn 0.6344 0.7730 0.0000
vn 0.7730 0.6344 0.0000
vn 0.8819 0.4714 0.0000
vn 0.9569 0.2903 0.0000
vn 0.9952 0.0980 -0.0000
vn 0.9952 -0.0980 0.0000
vn 0.9569 -0.2903 0.0000
vn 0.8819 -0.4714 0.0000
vn 0.7730 -0.6344 0.0000
vn 0.6344 -0.7730 0.0000
vn 0.4714 -0.8819 0.0000
vn 0.2903 -0.9569 0.0000
vn 0.0980 -0.9952 0.0000
vn -0.0980 -0.9952 0.0000
vn -0.2903 -0.9569 0.0000
vn -0.4714 -0.8819 0.0000
vn -0.6344 -0.7730 0.0000
vn -0.7730 -0.6344 0.0000
vn -0.8819 -0.4714 0.0000
vn -0.9569 -0.2903 0.0000
vn -0.9952 -0.0980 0.0000
vn -0.9952 0.0980 0.0000
vn -0.9569 0.2903 0.0000
vn -0.8819 0.4714 0.0000
vn -0.7730 0.6344 0.0000
vn -0.6344 0.7730 0.0000
vn -0.4714 0.8819 0.0000
vn 0.2807 0.0276 -0.9594
vn -0.2903 0.9569 0.0000
vn -0.0980 0.9952 0.0000
vn 0.0000 0.0000 1.0000
vn -0.0276 -0.2807 -0.9594
vn -0.2699 0.0819 -0.9594
vn 0.1789 0.2180 -0.9594
vn 0.1789 -0.2180 -0.9594
vn -0.2487 -0.1329 -0.9594
vn -0.0819 0.2699 -0.9594
vn 0.2807 -0.0276 -0.9594
vn -0.0819 -0.2699 -0.9594
vn -0.2487 0.1329 -0.9594
vn 0.2180 0.1789 -0.9594
vn 0.1329 -0.2487 -0.9594
vn -0.2699 -0.0819 -0.9594
vn 0.0276 0.2807 -0.9594
vn -0.0276 0.2807 -0.9594
vn 0.2699 -0.0819 -0.9594
vn -0.1329 -0.2487 -0.9594
vn -0.2180 0.1789 -0.9594
vn 0.2487 0.1329 -0.9594
vn 0.0819 -0.2699 -0.9594
vn -0.2807 -0.0276 -0.9594
vn 0.0819 0.2699 -0.9594
vn 0.2487 -0.1329 -0.9594
vn -0.1789 -0.2180 -0.9594
vn -0.1789 0.2180 -0.9594
vn 0.2699 0.0819 -0.9594
vn 0.0276 -0.2807 -0.9594
vn -0.2807 0.0276 -0.9594
vn 0.1329 0.2487 -0.9594
vn 0.2180 -0.1789 -0.9594
vn -0.2180 -0.1789 -0.9594
vn -0.1329 0.2487 -0.9594
vn -0.0000 0.0000 -1.0000
usemtl None
s off
f 1/1/1 3/2/1 4/3/1 2/4/1
f 3/5/2 5/6/2 6/7/2 4/8/2
f 5/6/3 7/9/3 8/10/3 6/7/3
f 7/9/4 9/11/4 10/12/4 8/10/4
f 9/11/5 11/13/5 12/14/5 10/12/5
f 11/13/6 13/15/6 14/16/6 12/14/6
f 13/15/7 15/17/7 16/18/7 14/16/7
f 15/17/8 17/19/8 18/20/8 16/18/8
f 17/19/9 19/21/9 20/22/9 18/20/9
f 19/23/10 21/24/10 22/25/10 20/26/10
f 21/24/11 23/27/11 24/28/11 22/25/11
f 23/27/12 25/29/12 26/30/12 24/28/12
f 25/29/13 27/31/13 28/32/13 26/30/13
f 27/31/14 29/33/14 30/34/14 28/32/14
f 29/33/15 31/35/15 32/36/15 30/34/15
f 31/35/16 33/37/16 34/38/16 32/36/16
f 33/37/17 35/39/17 36/40/17 34/38/17
f 35/41/18 37/42/18 38/43/18 36/44/18
f 37/42/19 39/45/19 40/46/19 38/43/19
f 39/45/20 41/47/20 42/48/20 40/46/20
f 41/47/21 43/49/21 44/50/21 42/48/21
f 43/49/22 45/51/22 46/52/22 44/50/22
f 45/51/23 47/53/23 48/54/23 46/52/23
f 47/53/24 49/55/24 50/56/24 48/54/24
f 49/57/25 51/58/25 52/59/25 50/60/25
f 51/58/26 53/61/26 54/62/26 52/59/26
f 53/61/27 55/63/27 56/64/27 54/62/27
f 55/63/28 57/65/28 58/66/28 56/64/28
f 57/65/29 59/67/29 60/68/29 58/66/29
f 59/67/30 61/69/30 62/70/30 60/68/30
f 18/71/31 73/72/31 72/73/31 16/74/31
f 61/69/32 63/75/32 64/76/32 62/70/32
f 63/75/33 1/1/33 2/4/33 64/76/33
f 1/77/34 63/78/34 61/79/34 59/80/34 57/81/34 55/82/34 53/83/34 51/84/34 49/85/34 47/86/34 45/87/34 43/88/34 41/89/34 39/90/34 37/91/34 35/92/34 33/93/34 31/94/34 29/95/34 27/96/34 25/97/34 23/98/34 21/99/34 19/100/34 17/101/34 15/102/34 13/103/34 11/104/34 9/105/34 7/106/34 5/107/34 3/108/34
f 87/109/6 119/110/6 118/111/6 86/112/6
f 36/113/35 82/114/35 81/115/35 34/116/35
f 54/117/36 91/118/36 90/119/36 52/120/36
f 10/121/37 69/122/37 68/123/37 8/124/37
f 28/125/38 78/126/38 77/127/38 26/128/38
f 46/129/39 87/130/39 86/131/39 44/132/39
f 64/133/40 96/134/40 95/135/40 62/136/40
f 20/137/41 74/138/41 73/72/41 18/71/41
f 38/139/42 83/140/42 82/114/42 36/113/42
f 56/141/43 92/142/43 91/118/43 54/117/43
f 12/143/44 70/144/44 69/122/44 10/121/44
f 30/145/45 79/146/45 78/126/45 28/125/45
f 48/147/46 88/148/46 87/130/46 46/129/46
f 4/149/47 65/150/47 66/151/47 2/152/47
f 2/152/48 66/151/48 96/134/48 64/133/48
f 22/153/49 75/154/49 74/138/49 20/137/49
f 40/155/50 84/156/50 83/140/50 38/139/50
f 58/157/51 93/158/51 92/142/51 56/141/51
f 14/159/52 71/160/52 70/144/52 12/143/52
f 32/161/53 80/162/53 79/146/53 30/145/53
f 50/163/54 89/164/54 88/148/54 48/147/54
f 6/165/55 67/166/55 65/150/55 4/149/55
f 24/167/56 76/168/56 75/154/56 22/153/56
f 42/169/57 85/170/57 84/156/57 40/155/57
f 60/171/58 94/172/58 93/158/58 58/157/58
f 16/74/59 72/73/59 71/160/59 14/159/59
f 34/116/60 81/115/60 80/162/60 32/161/60
f 52/120/61 90/119/61 89/164/61 50/163/61
f 8/124/62 68/123/62 67/166/62 6/165/62
f 26/128/63 77/127/63 76/168/63 24/167/63
f 44/132/64 86/131/64 85/170/64 42/169/64
f 62/136/65 95/135/65 94/172/65 60/171/65
f 97/173/66 99/174/66 100/175/66 101/176/66 102/177/66 103/178/66 104/179/66 105/180/66 106/181/66 107/182/66 108/183/66 109/184/66 110/185/66 111/186/66 112/187/66 113/188/66 114/189/66 115/190/66 116/191/66 117/192/66 118/193/66 119/194/66 120/195/66 121/196/66 122/197/66 123/198/66 124/199/66 125/200/66 126/201/66 127/202/66 128/203/66 98/204/66
f 74/205/25 106/206/25 105/207/25 73/208/25
f 88/209/7 120/210/7 119/110/7 87/109/7
f 75/211/26 107/212/26 106/206/26 74/213/26
f 89/214/8 121/215/8 120/210/8 88/209/8
f 76/216/27 108/217/27 107/212/27 75/211/27
f 90/218/9 122/219/9 121/220/9 89/221/9
f 77/222/28 109/223/28 108/217/28 76/216/28
f 91/224/10 123/225/10 122/219/10 90/218/10
f 78/226/29 110/227/29 109/223/29 77/222/29
f 92/228/11 124/229/11 123/225/11 91/224/11
f 79/230/30 111/231/30 110/227/30 78/226/30
f 65/232/17 97/233/17 98/234/17 66/235/17
f 93/236/12 125/237/12 124/229/12 92/228/12
f 80/238/32 112/239/32 111/231/32 79/230/32
f 67/240/18 99/241/18 97/242/18 65/243/18
f 94/244/13 126/245/13 125/237/13 93/236/13
f 81/246/33 113/247/33 112/239/33 80/238/33
f 68/248/19 100/249/19 99/241/19 67/240/19
f 95/250/14 127/251/14 126/245/14 94/244/14
f 82/252/1 114/253/1 113/247/1 81/246/1
f 69/254/20 101/255/20 100/249/20 68/248/20
f 96/256/15 128/257/15 127/251/15 95/250/15
f 83/258/2 115/259/2 114/260/2 82/261/2
f 70/262/21 102/263/21 101/255/21 69/254/21
f 66/235/16 98/234/16 128/257/16 96/256/16
f 84/264/3 116/265/3 115/259/3 83/258/3
f 71/266/22 103/267/22 102/263/22 70/262/22
f 85/268/4 117/269/4 116/265/4 84/264/4
f 72/270/23 104/271/23 103/267/23 71/266/23
f 86/112/5 118/111/5 117/269/5 85/268/5
f 73/208/24 105/207/24 104/271/24 72/270/24
